<svg version="1.1" viewBox="0.0 0.0 960.0 720.0" fill="none" stroke="none" stroke-linecap="square" stroke-miterlimit="10" xmlns:xlink="http://www.w3.org/1999/xlink" xmlns="http://www.w3.org/2000/svg"><clipPath id="p.0"><path d="m0 0l960.0 0l0 720.0l-960.0 0l0 -720.0z" clip-rule="nonzero"/></clipPath><g clip-path="url(#p.0)"><path fill="#000000" fill-opacity="0.0" d="m0 0l960.0 0l0 720.0l-960.0 0z" fill-rule="evenodd"/><path fill="#cfe2f3" d="m86.663704 239.4985l0 0c-7.74028 -58.07921 17.672607 -115.57409 65.455055 -148.08746c47.78244 -32.513374 109.55443 -34.34309 159.1038 -4.712738l0 0c17.55191 -33.769653 49.677032 -57.085274 86.65814 -62.894333c36.98108 -5.809057 74.47461 6.5707417 101.139465 33.394745l0 0c14.951996 -30.617743 44.310394 -51.18895 77.65744 -54.413895c33.347046 -3.2249436 65.963196 11.352787 86.27466 38.560257l0 0c27.012878 -32.454727 69.99115 -46.11952 110.33777 -35.08154c40.34662 11.03798 70.815 44.796207 78.22131 86.66731l0 0c33.095398 9.217278 60.663208 32.648827 75.58075 64.24068c14.91748 31.591858 15.7213745 68.24492 2.2039185 100.48923l0 0c32.589355 43.307617 40.21277 101.01453 20.025452 151.58548c-20.187317 50.570953 -65.15253 86.408295 -118.11542 94.13812c-0.37329102 47.462677 -25.866882 91.013824 -66.65436 113.866974c-40.787537 22.85315 -90.49982 21.439697 -129.97565 -3.6955566l0 0c-16.814636 56.844727 -64.14215 98.67053 -121.53534 107.407104c-57.39322 8.736633 -114.56323 -17.18219 -146.81049 -66.55859l0 0c-39.52838 24.337769 -86.95917 31.348755 -131.59291 19.451294c-44.63376 -11.8974 -82.71074 -41.70099 -105.641556 -82.68768l0 0c-40.39305 4.826294 -79.447556 -16.54181 -97.78089 -53.49939c-18.33334 -36.95758 -12.042789 -81.63724 15.749676 -111.864655l0 0c-36.03165 -21.653473 -54.41717 -64.621155 -45.569233 -106.49707c8.847939 -41.875916 42.92436 -73.17084 84.45975 -77.565704z" fill-rule="evenodd"/><path fill="#000000" fill-opacity="0.0" d="m46.974743 425.7997l0 0c17.003445 10.218353 36.64641 14.853638 56.291508 13.283478m25.730865 152.08429c8.44812 -1.0093994 16.728867 -3.1469727 24.628723 -6.357483m212.59395 69.59125c-5.941864 -9.0980835 -10.916687 -18.82013 -14.839722 -29.00055m283.19574 -11.849731l0 0c3.0655518 -10.363647 5.051819 -21.03009 5.925537 -31.82135m190.69708 -78.34604c0.3973999 -50.53134 -27.711792 -96.79834 -72.25391 -118.92798m170.34296 -126.79031c-7.21344 17.206879 -18.225586 32.470856 -32.172974 44.595123m-45.60492 -209.32953l0 0c1.229065 6.948517 1.7978516 14.001472 1.6985474 21.061111m-190.25446 -72.64479l0 0c-6.7384033 8.09584 -12.289917 17.142838 -16.48175 26.859295m-147.4519 -11.00919l0 0c-3.590973 7.3533897 -6.2724915 15.134541 -7.9827576 23.164204m-179.8176 6.335991l0 0c10.484619 6.26976 20.184326 13.816093 28.886017 22.47322m-253.44199 130.32779l0 0c1.0668106 8.004822 2.7524261 15.91095 5.0410767 23.644379" fill-rule="evenodd"/><path stroke="#000000" stroke-width="1.0" stroke-linejoin="round" stroke-linecap="butt" d="m86.663704 239.4985l0 0c-7.74028 -58.07921 17.672607 -115.57409 65.455055 -148.08746c47.78244 -32.513374 109.55443 -34.34309 159.1038 -4.712738l0 0c17.55191 -33.769653 49.677032 -57.085274 86.65814 -62.894333c36.98108 -5.809057 74.47461 6.5707417 101.139465 33.394745l0 0c14.951996 -30.617743 44.310394 -51.18895 77.65744 -54.413895c33.347046 -3.2249436 65.963196 11.352787 86.27466 38.560257l0 0c27.012878 -32.454727 69.99115 -46.11952 110.33777 -35.08154c40.34662 11.03798 70.815 44.796207 78.22131 86.66731l0 0c33.095398 9.217278 60.663208 32.648827 75.58075 64.24068c14.91748 31.591858 15.7213745 68.24492 2.2039185 100.48923l0 0c32.589355 43.307617 40.21277 101.01453 20.025452 151.58548c-20.187317 50.570953 -65.15253 86.408295 -118.11542 94.13812c-0.37329102 47.462677 -25.866882 91.013824 -66.65436 113.866974c-40.787537 22.85315 -90.49982 21.439697 -129.97565 -3.6955566l0 0c-16.814636 56.844727 -64.14215 98.67053 -121.53534 107.407104c-57.39322 8.736633 -114.56323 -17.18219 -146.81049 -66.55859l0 0c-39.52838 24.337769 -86.95917 31.348755 -131.59291 19.451294c-44.63376 -11.8974 -82.71074 -41.70099 -105.641556 -82.68768l0 0c-40.39305 4.826294 -79.447556 -16.54181 -97.78089 -53.49939c-18.33334 -36.95758 -12.042789 -81.63724 15.749676 -111.864655l0 0c-36.03165 -21.653473 -54.41717 -64.621155 -45.569233 -106.49707c8.847939 -41.875916 42.92436 -73.17084 84.45975 -77.565704z" fill-rule="evenodd"/><path stroke="#000000" stroke-width="1.0" stroke-linejoin="round" stroke-linecap="butt" d="m46.974743 425.7997l0 0c17.003445 10.218353 36.64641 14.853638 56.291508 13.283478m25.730865 152.08429c8.44812 -1.0093994 16.728867 -3.1469727 24.628723 -6.357483m212.59395 69.59125c-5.941864 -9.0980835 -10.916687 -18.82013 -14.839722 -29.00055m283.19574 -11.849731l0 0c3.0655518 -10.363647 5.051819 -21.03009 5.925537 -31.82135m190.69708 -78.34604c0.3973999 -50.53134 -27.711792 -96.79834 -72.25391 -118.92798m170.34296 -126.79031c-7.21344 17.206879 -18.225586 32.470856 -32.172974 44.595123m-45.60492 -209.32953l0 0c1.229065 6.948517 1.7978516 14.001472 1.6985474 21.061111m-190.25446 -72.64479l0 0c-6.7384033 8.09584 -12.289917 17.142838 -16.48175 26.859295m-147.4519 -11.00919l0 0c-3.590973 7.3533897 -6.2724915 15.134541 -7.9827576 23.164204m-179.8176 6.335991l0 0c10.484619 6.26976 20.184326 13.816093 28.886017 22.47322m-253.44199 130.32779l0 0c1.0668106 8.004822 2.7524261 15.91095 5.0410767 23.644379" fill-rule="evenodd"/><path fill="#000000" fill-opacity="0.0" d="m267.79 132.13641l424.4152 0l0 455.72736l-424.4152 0z" fill-rule="evenodd"/><path fill="#000000" d="m379.74313 490.68954q-32.390625 0 -51.296875 -12.234375q-18.890625 -12.234375 -26.453125 -34.015625q-7.5625 -21.78125 -7.5625 -50.578125l0 -104.765625q0 -30.234375 7.5625 -52.015625q7.5625 -21.78125 26.453125 -33.65625q18.90625 -11.890625 51.296875 -11.890625q31.328125 0 49.140625 10.453125q17.828125 10.4375 25.203125 29.515625q7.390625 19.078125 7.390625 44.28125l0 24.46875l-57.609375 0l0 -27.359375q0 -10.078125 -1.078125 -18.890625q-1.078125 -8.828125 -5.9375 -14.40625q-4.859375 -5.578125 -16.75 -5.578125q-11.875 0 -17.28125 5.765625q-5.390625 5.75 -6.828125 14.9375q-1.4375 9.171875 -1.4375 20.328125l0 132.48438q0 12.25 1.96875 21.4375q1.984375 9.171875 7.5625 14.03125q5.578125 4.859375 16.015625 4.859375q11.53125 0 16.390625 -5.578125q4.859375 -5.59375 6.109375 -14.953125q1.265625 -9.359375 1.265625 -19.796875l0 -28.4375l57.609375 0l0 24.125q0 25.5625 -7.203125 45.1875q-7.203125 19.609375 -24.84375 30.953125q-17.640625 11.328125 -49.6875 11.328125zm118.079956 -3.953125l0 -291.59375l59.40628 0l0 251.28125l68.40625 0l0 40.3125l-127.81253 0z" fill-rule="nonzero"/></g></svg>